# xmcd CD database file
#
# Track frame offsets:
#	150
#	22640
#	40240
#	59282
#	89604
#	107177
#	128075
#	144497
#	165965
#	188002
#	204760
#
# Disc length: 3204 seconds
#
# Revision: 0
# Processed by: cddbd v1.4PL0 Copyright (c) Steve Scherf et al.
# Submitted via: CDex 1.40Release
#
DISCID=840c820b
DTITLE=Lancaster Blues Banc - Working Like a Slave
DYEAR=1996
DGENRE=Blues
TTITLE0=Working like a Slave
TTITLE1=Sweet Sister
TTITLE2=Happy Man Blues
TTITLE3=Locomotive
TTITLE4=You Upset Me Baby
TTITLE5=Peace of Mind
TTITLE6=That's My Story
TTITLE7=Let's go to the Zoo
TTITLE8=When Everybody is gone
TTITLE9=I get my Kicks
TTITLE10=Stormy Monday
EXTD=YEAR: 1996 ID3G: 0
EXTT0=
EXTT1=
EXTT2=
EXTT3=
EXTT4=
EXTT5=
EXTT6=
EXTT7=
EXTT8=
EXTT9=
EXTT10=
PLAYORDER=
